<svg width="24" height="24" viewBox="0 0 24 24" fill="none" xmlns="http://www.w3.org/2000/svg">
<g clip-path="url(#clip0_1675_35046)">
<path d="M21.6733 18.5536C21.0304 17.9805 20.4676 17.3235 20 16.6003C19.4895 15.602 19.1835 14.5117 19.1 13.3936V10.1003C19.1044 8.344 18.4673 6.64658 17.3085 5.32691C16.1496 4.00724 14.5488 3.15617 12.8067 2.93359V2.07359C12.8067 1.83755 12.7129 1.61118 12.546 1.44427C12.3791 1.27736 12.1527 1.18359 11.9167 1.18359C11.6806 1.18359 11.4542 1.27736 11.2873 1.44427C11.1204 1.61118 11.0267 1.83755 11.0267 2.07359V2.94693C9.30016 3.18555 7.71864 4.04176 6.57501 5.357C5.43138 6.67223 4.80314 8.35736 4.80666 10.1003V13.3936C4.72316 14.5117 4.41718 15.602 3.90666 16.6003C3.44725 17.3218 2.89345 17.9788 2.25999 18.5536C2.18888 18.6161 2.13189 18.693 2.0928 18.7792C2.05372 18.8654 2.03345 18.9589 2.03333 19.0536V19.9603C2.03333 20.1371 2.10356 20.3066 2.22859 20.4317C2.35361 20.5567 2.52318 20.6269 2.69999 20.6269H21.2333C21.4101 20.6269 21.5797 20.5567 21.7047 20.4317C21.8297 20.3066 21.9 20.1371 21.9 19.9603V19.0536C21.8999 18.9589 21.8796 18.8654 21.8405 18.7792C21.8014 18.693 21.7444 18.6161 21.6733 18.5536ZM3.41999 19.2936C4.04026 18.6944 4.58639 18.0229 5.04666 17.2936C5.68973 16.0879 6.06495 14.7576 6.14666 13.3936V10.1003C6.12022 9.31895 6.25127 8.54031 6.53202 7.81071C6.81277 7.0811 7.23747 6.41545 7.78082 5.8534C8.32418 5.29134 8.97508 4.84437 9.69478 4.53911C10.4145 4.23385 11.1882 4.07653 11.97 4.07653C12.7517 4.07653 13.5255 4.23385 14.2452 4.53911C14.9649 4.84437 15.6158 5.29134 16.1592 5.8534C16.7025 6.41545 17.1272 7.0811 17.408 7.81071C17.6887 8.54031 17.8198 9.31895 17.7933 10.1003V13.3936C17.875 14.7576 18.2502 16.0879 18.8933 17.2936C19.3536 18.0229 19.8997 18.6944 20.52 19.2936H3.41999Z" fill="white"/>
<path d="M12.038 22.9998C12.5171 22.987 12.9768 22.7793 13.3358 22.4133C13.6949 22.0474 13.9301 21.5467 14 21H10C10.0718 21.5616 10.3181 22.074 10.693 22.4418C11.0679 22.8097 11.5459 23.008 12.038 22.9998V22.9998Z" fill="white"/>
</g>
<defs>
<clipPath id="clip0_1675_35046">
<rect width="24" height="24" fill="white"/>
</clipPath>
</defs>
</svg>
