<svg width="22" height="17" viewBox="0 0 22 17" fill="none" xmlns="http://www.w3.org/2000/svg">
<path d="M17.3492 16V14.3333C17.3492 13.4493 17.0148 12.6014 16.4194 11.9763C15.824 11.3512 15.0166 11 14.1746 11H7.82537C6.98341 11 6.17594 11.3512 5.58058 11.9763C4.98522 12.6014 4.65076 13.4493 4.65076 14.3333V16" stroke="white" stroke-linecap="round" stroke-linejoin="round"/>
<path d="M10.9999 7.66667C12.7532 7.66667 14.1745 6.17428 14.1745 4.33333C14.1745 2.49238 12.7532 1 10.9999 1C9.24664 1 7.82532 2.49238 7.82532 4.33333C7.82532 6.17428 9.24664 7.66667 10.9999 7.66667Z" stroke="white" stroke-linecap="round" stroke-linejoin="round"/>
<path d="M20.9999 16.3917V14.725C20.9994 13.9864 20.7653 13.269 20.3343 12.6853C19.9034 12.1015 19.3 11.6846 18.619 11.5M15.4443 1.5C16.1272 1.68358 16.7325 2.10058 17.1647 2.68526C17.5969 3.26993 17.8315 3.98902 17.8315 4.72917C17.8315 5.46931 17.5969 6.1884 17.1647 6.77307C16.7325 7.35775 16.1272 7.77475 15.4443 7.95833" stroke="white" stroke-linecap="round" stroke-linejoin="round"/>
<path d="M0.999965 16.3917V14.725C1.00049 13.9864 1.2346 13.269 1.66555 12.6853C2.0965 12.1015 2.69987 11.6846 3.38093 11.5M6.55554 1.5C5.87267 1.68358 5.26741 2.10058 4.83519 2.68526C4.40296 3.26993 4.16836 3.98902 4.16836 4.72917C4.16836 5.46931 4.40296 6.1884 4.83519 6.77307C5.26741 7.35775 5.87267 7.77475 6.55554 7.95833" stroke="white" stroke-linecap="round" stroke-linejoin="round"/>
</svg>
