<svg width="20" height="20" viewBox="0 0 20 20" fill="none" xmlns="http://www.w3.org/2000/svg">
<path d="M18.4375 3.75H15V1.5625H13.75V3.75H6.25V1.5625H5V3.75H1.5625C1.31395 3.75029 1.07566 3.84915 0.899907 4.02491C0.724154 4.20066 0.625289 4.43895 0.625 4.6875V17.8125C0.625289 18.0611 0.724154 18.2993 0.899907 18.4751C1.07566 18.6508 1.31395 18.7497 1.5625 18.75H18.4375C18.6861 18.7497 18.9243 18.6508 19.1001 18.4751C19.2758 18.2993 19.3747 18.0611 19.375 17.8125V4.6875C19.3747 4.43895 19.2758 4.20066 19.1001 4.02491C18.9243 3.84915 18.6861 3.75029 18.4375 3.75V3.75ZM18.125 17.5H1.875V5H5V6.5625H6.25V5H13.75V6.5625H15V5H18.125V17.5Z" fill="white"/>
<path d="M9.50779 12.2412L7.38338 10.1168L6.49951 11.0007L9.50779 14.009L14.4146 9.10213L13.5307 8.21826L9.50779 12.2412V12.2412Z" fill="white"/>
</svg>
