<svg width="20" height="20" viewBox="0 0 20 20" fill="none" xmlns="http://www.w3.org/2000/svg">
<path d="M10.3825 1.38342C10.2716 1.29696 10.135 1.25 9.99437 1.25C9.85375 1.25 9.71715 1.29696 9.60625 1.38342L0.625 8.38654L1.40188 9.36905L2.5 8.5128V16.2497C2.50066 16.581 2.63257 16.8985 2.86685 17.1328C3.10112 17.3671 3.41868 17.499 3.75 17.4997H16.25C16.5813 17.499 16.8989 17.3671 17.1332 17.1328C17.3674 16.8985 17.4993 16.581 17.5 16.2497V8.51842L18.5981 9.37467L19.375 8.39217L10.3825 1.38342ZM11.25 16.2497H8.75V11.2497H11.25V16.2497ZM12.5 16.2497V11.2497C12.4997 10.9183 12.3679 10.6005 12.1335 10.3662C11.8992 10.1318 11.5814 10 11.25 9.99967H8.75C8.41858 10 8.10083 10.1318 7.86648 10.3662C7.63213 10.6005 7.50033 10.9183 7.5 11.2497V16.2497H3.75V7.53842L10 2.66967L16.25 7.54467V16.2497H12.5Z" fill="white"/>
</svg>
