<svg width="21" height="18" viewBox="0 0 21 18" fill="none" xmlns="http://www.w3.org/2000/svg">
<path d="M14.375 9.375L16.125 11.125L19.625 7.375" stroke="white" stroke-linecap="round" stroke-linejoin="round"/>
<path d="M15 17V15.2221C15 14.2791 14.6067 13.3747 13.9065 12.7079C13.2064 12.0411 12.2568 11.6665 11.2667 11.6665H4.73333C3.74319 11.6665 2.7936 12.0411 2.09347 12.7079C1.39333 13.3747 1 14.2791 1 15.2221V17" stroke="white" stroke-linecap="round" stroke-linejoin="round"/>
<path d="M7.99993 8.11129C10.0618 8.11129 11.7333 6.51937 11.7333 4.55564C11.7333 2.59192 10.0618 1 7.99993 1C5.93807 1 4.2666 2.59192 4.2666 4.55564C4.2666 6.51937 5.93807 8.11129 7.99993 8.11129Z" stroke="white" stroke-linecap="round" stroke-linejoin="round"/>
</svg>
