<svg width="20" height="20" viewBox="0 0 20 20" fill="none" xmlns="http://www.w3.org/2000/svg">
<path d="M10.0556 6.11133C7.88897 6.11133 6.16675 7.83355 6.16675 10.0002C6.16675 12.1669 7.88897 13.8891 10.0556 13.8891C12.2223 13.8891 13.9445 12.1669 13.9445 10.0002C13.9445 7.83355 12.2223 6.11133 10.0556 6.11133ZM10.0556 12.778C8.50008 12.778 7.27786 11.5558 7.27786 10.0002C7.27786 8.44466 8.50008 7.22244 10.0556 7.22244C11.6112 7.22244 12.8334 8.44466 12.8334 10.0002C12.8334 11.5558 11.6112 12.778 10.0556 12.778Z" fill="white"/>
<path d="M18.2222 8.16688L16.6666 7.66688L16.3333 6.83355L17.1111 5.38911C17.2778 5.05577 17.2222 4.61133 16.9444 4.33355L15.6111 3.00022C15.3333 2.72244 14.8889 2.66688 14.5555 2.83355L13.1111 3.61133L12.2778 3.27799L11.7778 1.72244C11.6666 1.38911 11.3333 1.11133 10.9444 1.11133H9.05553C8.66664 1.11133 8.33331 1.38911 8.27775 1.77799L7.77775 3.33355C7.44442 3.38911 7.16664 3.50022 6.88886 3.66688L5.44442 2.88911C5.11108 2.72244 4.66664 2.77799 4.38886 3.05577L3.05553 4.38911C2.77775 4.66688 2.7222 5.11133 2.88886 5.44466L3.61108 6.83355C3.49997 7.11133 3.38886 7.44466 3.27775 7.72244L1.7222 8.22244C1.38886 8.33355 1.11108 8.66688 1.11108 9.05577V10.9447C1.11108 11.3336 1.38886 11.6669 1.77775 11.778L3.33331 12.278L3.66664 13.1113L2.88886 14.5558C2.7222 14.8891 2.77775 15.3336 3.05553 15.6113L4.38886 16.9447C4.66664 17.2224 5.11108 17.278 5.44442 17.1113L6.88886 16.3336L7.7222 16.6669L8.2222 18.278C8.33331 18.6113 8.66664 18.8891 9.05553 18.8891H10.9444C11.3333 18.8891 11.6666 18.6113 11.7778 18.278L12.2778 16.6669L13.1111 16.3336L14.5555 17.1113C14.8889 17.278 15.3333 17.2224 15.6111 16.9447L16.9444 15.6113C17.2222 15.3336 17.2778 14.8891 17.1111 14.5558L16.3333 13.1113L16.6666 12.278L18.2778 11.778C18.6111 11.6669 18.8889 11.3336 18.8889 10.9447V9.05577C18.8889 8.66688 18.6111 8.278 18.2222 8.16688V8.16688ZM17.7778 10.778L15.7778 11.3891L15.7222 11.6669L15.2222 12.8336L15.0555 13.1113L16.0555 14.9447L14.9444 16.0558L13.1111 15.0558L12.8333 15.2224C12.4444 15.4447 12.0555 15.6113 11.6666 15.7224L11.3889 15.778L10.7778 17.778H9.2222L8.61108 15.778L8.33331 15.7224L7.16664 15.2224L6.88886 15.0558L5.05553 16.0558L3.94442 14.9447L4.94442 13.1113L4.77775 12.8336C4.55553 12.4447 4.38886 12.0558 4.27775 11.6669L4.2222 11.3891L2.2222 10.778V9.22244L4.11108 8.66688L4.2222 8.38911C4.33331 7.94466 4.49997 7.55577 4.7222 7.16688L4.88886 6.88911L3.94442 5.05577L5.05553 3.94466L6.83331 4.94466L7.11108 4.778C7.49997 4.55577 7.88886 4.38911 8.33331 4.27799L8.61108 4.16688L9.2222 2.22244H10.7778L11.3889 4.16688L11.6666 4.27799C12.0555 4.38911 12.4444 4.55577 12.8333 4.778L13.1111 4.94466L14.9444 3.94466L16.0555 5.05577L15.0555 6.88911L15.2222 7.16688C15.4444 7.55577 15.6111 7.94466 15.7222 8.33355L15.7778 8.61133L17.7778 9.22244V10.778V10.778Z" fill="white"/>
</svg>
